<svg width="61" height="32" viewBox="0 0 61 32" fill="none" xmlns="http://www.w3.org/2000/svg">
<path d="M26.9907 15.011L16.3707 4.39096C14.5722 2.59258 12.133 1.58228 9.58969 1.58228C7.04634 1.58228 4.60715 2.59258 2.80869 4.39096C1.01031 6.18942 0 8.62862 0 11.172C0 13.7153 1.01031 16.1545 2.80869 17.953L13.4287 28.573C15.2272 30.3713 17.6663 31.3817 20.2097 31.3817C22.753 31.3817 25.1922 30.3713 26.9907 28.573C28.7891 26.7745 29.7994 24.3353 29.7994 21.792C29.7994 19.2486 28.7891 16.8094 26.9907 15.011Z" fill="#5CC9F6"/>
<path d="M57.9507 11.205C56.1522 9.40658 53.713 8.39624 51.1697 8.39624C48.6263 8.39624 46.1871 9.40658 44.3887 11.205C43.4981 12.0955 42.7916 13.1527 42.3096 14.3163C41.8276 15.4799 41.5795 16.727 41.5795 17.9865C41.5795 19.2459 41.8276 20.493 42.3096 21.6566C42.7916 22.8202 43.4981 23.8774 44.3887 24.7679C46.1871 26.5663 48.6263 27.5766 51.1697 27.5766C53.713 27.5766 56.1522 26.5663 57.9507 24.7679C58.8413 23.8774 59.5478 22.8202 60.0298 21.6566C60.5118 20.493 60.7599 19.2459 60.7599 17.9865C60.7599 16.727 60.5118 15.4799 60.0298 14.3163C59.5478 13.1527 58.8413 12.0955 57.9507 11.205Z" fill="#FA8807"/>
<path d="M17.3487 11.1771L13.3837 15.1421L13.3667 15.1241C11.8169 16.6341 9.80206 17.5758 7.64949 17.796C5.49692 18.0162 3.33313 17.502 1.5097 16.3371C1.88348 16.921 2.31935 17.4629 2.80969 17.9531L7.0897 22.2331L7.1327 22.2171L13.4797 28.5641L30.8667 11.1771C29.9792 10.2893 28.9255 9.58502 27.7658 9.10452C26.606 8.62403 25.363 8.37671 24.1077 8.37671C22.8524 8.37671 21.6093 8.62403 20.4496 9.10452C19.2899 9.58502 18.2362 10.2893 17.3487 11.1771Z" fill="#00AEEB"/>
<path d="M51.1287 4.47598L51.1197 4.46698C50.2436 3.56168 49.1949 2.84126 48.0355 2.34826C46.8762 1.85526 45.6298 1.59969 44.37 1.59671C43.1101 1.59372 41.8625 1.84336 40.7009 2.33087C39.5392 2.81837 38.4871 3.53386 37.6067 4.43499L20.2287 21.813C18.5371 23.5034 16.2751 24.5007 13.8861 24.6095C11.4972 24.7183 9.15388 23.9306 7.3157 22.401L13.4797 28.565L13.4867 28.559C15.2829 30.3551 17.719 31.3642 20.2592 31.3642C22.7994 31.3642 25.2355 30.3551 27.0317 28.559L43.9567 11.634L43.9847 11.642C44.1157 11.494 44.2497 11.348 44.3917 11.206C45.5737 10.0227 47.0448 9.16932 48.6587 8.73074C50.2727 8.29216 51.9734 8.28363 53.5917 8.70599C53.1525 7.10582 52.3035 5.64783 51.1287 4.47598Z" fill="#0080CA"/>
<path d="M53.5857 8.70708C51.9674 8.28472 50.2667 8.29325 48.6527 8.73183C47.0387 9.17041 45.5677 10.0238 44.3857 11.2071C44.2437 11.3491 44.1097 11.4951 43.9787 11.6431L43.9517 11.6351L27.0267 28.5601C26.9957 28.5911 26.9637 28.6191 26.9337 28.6491L26.9447 28.6611C28.7431 30.4595 31.1823 31.4698 33.7257 31.4698C36.269 31.4698 38.7082 30.4595 40.5067 28.6611L51.1267 18.0411C52.3262 16.8422 53.1859 15.3464 53.618 13.7065C54.05 12.0665 54.0388 10.3413 53.5857 8.70708Z" fill="#EE5913"/>
<path d="M25.0227 7.53793C25.8666 7.53793 26.5507 6.85382 26.5507 6.00993C26.5507 5.16604 25.8666 4.48193 25.0227 4.48193C24.1788 4.48193 23.4947 5.16604 23.4947 6.00993C23.4947 6.85382 24.1788 7.53793 25.0227 7.53793Z" fill="#5CC9F6"/>
<path d="M21.6497 4.56693C22.1909 4.56693 22.6297 4.12817 22.6297 3.58693C22.6297 3.04569 22.1909 2.60693 21.6497 2.60693C21.1085 2.60693 20.6697 3.04569 20.6697 3.58693C20.6697 4.12817 21.1085 4.56693 21.6497 4.56693Z" fill="#5CC9F6"/>
<path d="M23.8137 1.96C24.3549 1.96 24.7937 1.52124 24.7937 0.98C24.7937 0.438761 24.3549 0 23.8137 0C23.2725 0 22.8337 0.438761 22.8337 0.98C22.8337 1.52124 23.2725 1.96 23.8137 1.96Z" fill="#5CC9F6"/>
</svg>
